# xmcd
#
# Track frame offsets: 
#        165
#        25400
#        40673
#        55550
#        81698
#        98754
#        129869
#        158020
#        180693
#        195393
#        222937
#
# Disc length: 3131 seconds
#
# Revision: 0
# Processed by: cddbd v1.4PL0 Copyright (c) Steve Scherf et al.
# Submitted via: ExactAudioCopy v0.95a3
#
DISCID=880c390b
DTITLE=Power of 10 - Driven to Soul
DYEAR=1999
DGENRE=Blues
TTITLE0=That's What Love Will Do
TTITLE1=Just A Little
TTITLE2=Boppin' With The Blues
TTITLE3=At Last
TTITLE4=If You Love Me Like You Say
TTITLE5=You Can Leave Your Hat On
TTITLE6=Slip Away
TTITLE7=Shakey Ground
TTITLE8=I Heard It Through The Grapevine
TTITLE9=When Something Is Wrong With My Baby
TTITLE10=Snatchin' It Back
EXTD=
EXTT0=
EXTT1=
EXTT2=
EXTT3=
EXTT4=
EXTT5=
EXTT6=
EXTT7=
EXTT8=
EXTT9=
EXTT10=
PLAYORDER=
